grf
version=1
nRows=15
nColumns=28
inDegrees=yes
endheader
time	ground_force_1_vx	ground_force_1_vy	ground_force_1_vz	ground_force_1_px	ground_force_1_py	ground_force_1_pz	ground_moment_1_mx	ground_moment_1_my	ground_moment_1_mz	ground_force_2_vx	ground_force_2_vy	ground_force_2_vz	ground_force_2_px	ground_force_2_py	ground_force_2_pz	ground_moment_2_mx	ground_moment_2_my	ground_moment_2_mz	ground_force_3_vx	ground_force_3_vy	ground_force_3_vz	ground_force_3_px	ground_force_3_py	ground_force_3_pz	ground_moment_3_mx	ground_moment_3_my	ground_moment_3_mz
0.550000	0.000000	0.000000	0.000000	0.000000	0.000000	0.000000	0.000000	0.000000	0.000000	0.000000	0.000000	0.000000	0.000000	0.000000	0.000000	0.000000	0.000000	0.000000	6.114369	261.418306	-3.798448	-0.742820	0.001579	0.423391	-0.000310	0.777683	-0.002467
0.550667	0.000000	0.000000	0.000000	0.000000	0.000000	0.000000	0.000000	0.000000	0.000000	0.000000	0.000000	0.000000	0.000000	0.000000	0.000000	0.000000	0.000000	0.000000	6.293349	261.728311	-3.738619	-0.742825	0.001578	0.423132	-0.000310	0.777239	-0.002466
0.551333	0.000000	0.000000	0.000000	0.000000	0.000000	0.000000	0.000000	0.000000	0.000000	0.000000	0.000000	0.000000	0.000000	0.000000	0.000000	0.000000	0.000000	0.000000	6.473814	262.042072	-3.678221	-0.742974	0.001579	0.423463	-0.000310	0.776740	-0.002464
0.552000	0.000000	0.000000	0.000000	0.000000	0.000000	0.000000	0.000000	0.000000	0.000000	0.000000	0.000000	0.000000	0.000000	0.000000	0.000000	0.000000	0.000000	0.000000	6.655814	262.359566	-3.617095	-0.743259	0.001581	0.423965	-0.000309	0.776190	-0.002463
0.552667	0.000000	0.000000	0.000000	0.000000	0.000000	0.000000	0.000000	0.000000	0.000000	0.000000	0.000000	0.000000	0.000000	0.000000	0.000000	0.000000	0.000000	0.000000	6.839388	262.680755	-3.555084	-0.743472	0.001578	0.423159	-0.000309	0.775591	-0.002461
0.553333	0.000000	0.000000	0.000000	0.000000	0.000000	0.000000	0.000000	0.000000	0.000000	0.000000	0.000000	0.000000	0.000000	0.000000	0.000000	0.000000	0.000000	0.000000	7.024568	263.005590	-3.492031	-0.742734	0.001578	0.423132	-0.000309	0.774942	-0.002459
0.554000	0.000000	0.000000	0.000000	0.000000	0.000000	0.000000	0.000000	0.000000	0.000000	0.000000	0.000000	0.000000	0.000000	0.000000	0.000000	0.000000	0.000000	0.000000	7.211391	263.334000	-3.427785	-0.741814	0.001580	0.423569	-0.000309	0.774248	-0.002457
0.554667	0.000000	0.000000	0.000000	0.000000	0.000000	0.000000	0.000000	0.000000	0.000000	0.000000	0.000000	0.000000	0.000000	0.000000	0.000000	0.000000	0.000000	0.000000	7.399903	263.665876	-3.362199	-0.742070	0.001581	0.423847	-0.000308	0.773514	-0.002454
0.555333	0.000000	0.000000	0.000000	0.000000	0.000000	0.000000	0.000000	0.000000	0.000000	0.000000	0.000000	0.000000	0.000000	0.000000	0.000000	0.000000	0.000000	0.000000	7.590164	264.001074	-3.295133	-0.742229	0.001579	0.423457	-0.000308	0.772749	-0.002452
0.556000	0.000000	0.000000	0.000000	0.000000	0.000000	0.000000	0.000000	0.000000	0.000000	0.000000	0.000000	0.000000	0.000000	0.000000	0.000000	0.000000	0.000000	0.000000	7.782249	264.339430	-3.226448	-0.741675	0.001577	0.422693	-0.000308	0.771964	-0.002449
0.556667	0.000000	0.000000	0.000000	0.000000	0.000000	0.000000	0.000000	0.000000	0.000000	0.000000	0.000000	0.000000	0.000000	0.000000	0.000000	0.000000	0.000000	0.000000	7.976245	264.680777	-3.156010	-0.744777	0.001577	0.423033	-0.000307	0.771174	-0.002447
0.557333	0.000000	0.000000	0.000000	0.000000	0.000000	0.000000	0.000000	0.000000	0.000000	0.000000	0.000000	0.000000	0.000000	0.000000	0.000000	0.000000	0.000000	0.000000	8.172237	265.024954	-3.083690	-0.743103	0.001576	0.422357	-0.000307	0.770398	-0.002444
0.558000	0.000000	0.000000	0.000000	0.000000	0.000000	0.000000	0.000000	0.000000	0.000000	0.000000	0.000000	0.000000	0.000000	0.000000	0.000000	0.000000	0.000000	0.000000	8.370302	265.371818	-3.009373	-0.741992	0.001578	0.422923	-0.000307	0.769655	-0.002442
0.558667	0.000000	0.000000	0.000000	0.000000	0.000000	0.000000	0.000000	0.000000	0.000000	0.000000	0.000000	0.000000	0.000000	0.000000	0.000000	0.000000	0.000000	0.000000	8.570526	265.721245	-2.932952	-0.740972	0.001579	0.423210	-0.000307	0.768960	-0.002440
0.559333	0.000000	0.000000	0.000000	0.000000	0.000000	0.000000	0.000000	0.000000	0.000000	0.000000	0.000000	0.000000	0.000000	0.000000	0.000000	0.000000	0.000000	0.000000	8.773014	266.073126	-2.854332	-0.739783	0.001581	0.423639	-0.000306	0.768324	-0.002438
